<svg width="135" height="145" viewBox="0 0 135 145" fill="none" xmlns="http://www.w3.org/2000/svg">
<g id="y smile">
<path id="Vector" d="M9.92733 34.3254C19.527 17.6351 35.3526 5.43188 53.9351 0.390869C54.943 0.117724 56.0007 0.0825474 57.0246 0.288116C58.0485 0.493684 59.0107 0.934372 59.8351 1.57541C60.6596 2.21645 61.3238 3.04031 61.7754 3.98197C62.2269 4.92364 62.4535 5.95736 62.4372 7.00158C62.3098 18.3647 63.7317 29.6921 66.6636 40.6712C67.9691 45.5705 69.574 50.3851 71.4691 55.0879C81.2838 79.5815 98.6613 100.302 121.071 114.233C121.96 114.785 122.708 115.537 123.257 116.429C123.805 117.32 124.138 118.327 124.229 119.37C124.321 120.412 124.168 121.462 123.784 122.435C123.399 123.409 122.793 124.279 122.014 124.978C61.5562 178.781 -30.4701 109.631 9.92733 34.3254Z" fill="#FFDD00"/>
<path id="Vector_2" d="M99.1134 35.7952C108.998 35.7952 117.011 27.7821 117.011 17.8976C117.011 8.01302 108.998 0 99.1134 0C89.2289 0 81.2158 8.01302 81.2158 17.8976C81.2158 27.7821 89.2289 35.7952 99.1134 35.7952Z" fill="#FFDD00"/>
<path id="Vector_3" d="M117.017 89.4983C126.901 89.4983 134.914 81.4853 134.914 71.6007C134.914 61.7161 126.901 53.7031 117.017 53.7031C107.132 53.7031 99.1191 61.7161 99.1191 71.6007C99.1191 81.4853 107.132 89.4983 117.017 89.4983Z" fill="#FFDD00"/>
</g>
</svg>
