<svg width="135" height="145" viewBox="0 0 135 145" fill="none" xmlns="http://www.w3.org/2000/svg">
<g id="g smile">
<path id="Vector" d="M125.061 109.769C115.462 126.46 99.6362 138.663 81.0537 143.704C80.0463 143.977 78.9892 144.012 77.9657 143.807C76.9423 143.602 75.9805 143.162 75.1562 142.521C74.3319 141.881 73.6675 141.058 73.2156 140.117C72.7636 139.176 72.5363 138.143 72.5516 137.099C72.6795 125.736 71.2576 114.409 68.3252 103.43C67.0197 98.5305 65.4148 93.7159 63.5197 89.0132C53.7035 64.5205 36.3264 43.8 13.9178 29.8679C13.0299 29.3163 12.2826 28.5654 11.7352 27.6749C11.1877 26.7844 10.8551 25.7787 10.7636 24.7374C10.6722 23.6961 10.8244 22.6477 11.2082 21.6754C11.5921 20.7031 12.197 19.8336 12.9752 19.1356C73.4326 -34.6866 165.459 34.464 125.061 109.769Z" fill="#45CB85"/>
<path id="Vector_2" d="M35.8014 144.209C45.686 144.209 53.699 136.196 53.699 126.312C53.699 116.427 45.686 108.414 35.8014 108.414C25.9168 108.414 17.9038 116.427 17.9038 126.312C17.9038 136.196 25.9168 144.209 35.8014 144.209Z" fill="#45CB85"/>
<path id="Vector_3" d="M17.8976 90.5061C27.7821 90.5061 35.7952 82.4931 35.7952 72.6085C35.7952 62.724 27.7821 54.7109 17.8976 54.7109C8.01302 54.7109 0 62.724 0 72.6085C0 82.4931 8.01302 90.5061 17.8976 90.5061Z" fill="#45CB85"/>
</g>
</svg>
