<svg width="135" height="145" viewBox="0 0 135 145" fill="none" xmlns="http://www.w3.org/2000/svg">
<g id="v smile">
<path id="Vector" d="M9.92347 109.769C19.5229 126.465 35.3546 138.67 53.9435 143.704C54.9507 143.977 56.0076 144.013 57.0307 143.807C58.0539 143.602 59.0154 143.162 59.8393 142.521C60.6632 141.881 61.3269 141.058 61.7782 140.117C62.2295 139.176 62.4558 138.143 62.4395 137.099C62.3117 125.736 63.7335 114.409 66.6659 103.43C67.9715 98.5305 69.5763 93.7159 71.4715 89.0132C81.2852 64.5209 98.6603 43.8003 121.067 29.8679C121.955 29.3157 122.701 28.5645 123.248 27.6737C123.795 26.783 124.127 25.7771 124.218 24.7358C124.309 23.6945 124.156 22.6464 123.772 21.6744C123.387 20.7023 122.782 19.8331 122.004 19.1356C61.5462 -34.6866 -30.4616 34.464 9.92347 109.769Z" fill="#724CF9"/>
<path id="Vector_2" d="M99.0294 144.209C108.914 144.209 116.927 136.196 116.927 126.312C116.927 116.427 108.914 108.414 99.0294 108.414C89.1449 108.414 81.1318 116.427 81.1318 126.312C81.1318 136.196 89.1449 144.209 99.0294 144.209Z" fill="#724CF9"/>
<path id="Vector_3" d="M116.933 90.5061C126.817 90.5061 134.83 82.4931 134.83 72.6085C134.83 62.724 126.817 54.7109 116.933 54.7109C107.048 54.7109 99.0352 62.724 99.0352 72.6085C99.0352 82.4931 107.048 90.5061 116.933 90.5061Z" fill="#724CF9"/>
</g>
</svg>
