<svg width="130" height="139" viewBox="0 0 130 139" fill="none" xmlns="http://www.w3.org/2000/svg">
<g id="r smile">
<path id="Vector" d="M120.461 33.0105C111.224 16.9549 95.9968 5.21805 78.1185 0.374081C77.1491 0.111385 76.1319 0.0775544 75.1472 0.275258C74.1624 0.472963 73.2371 0.896792 72.4442 1.51331C71.6513 2.12983 71.0125 2.92216 70.5782 3.82781C70.1439 4.73345 69.926 5.72763 69.9417 6.7319C70.0642 17.6603 68.6967 28.5544 65.8769 39.1135C64.6213 43.8254 63.0779 48.4558 61.2552 52.9786C51.8161 76.5352 35.1034 96.4634 13.5509 109.861C12.692 110.39 11.9684 111.112 11.4375 111.969C10.9066 112.827 10.5832 113.796 10.4928 114.801C10.4025 115.805 10.5478 116.817 10.9172 117.756C11.2866 118.694 11.8699 119.533 12.6206 120.207C70.789 171.94 159.295 105.435 120.461 33.0105Z" fill="#FF6B6B"/>
<path id="Vector_2" d="M34.4317 34.4258C43.9381 34.4258 51.6446 26.7193 51.6446 17.2129C51.6446 7.70648 43.9381 0 34.4317 0C24.9252 0 17.2188 7.70648 17.2188 17.2129C17.2188 26.7193 24.9252 34.4258 34.4317 34.4258Z" fill="#FF6B6B"/>
<path id="Vector_3" d="M17.2129 86.0664C26.7193 86.0664 34.4258 78.36 34.4258 68.8535C34.4258 59.3471 26.7193 51.6406 17.2129 51.6406C7.70648 51.6406 0 59.3471 0 68.8535C0 78.36 7.70648 86.0664 17.2129 86.0664Z" fill="#FF6B6B"/>
</g>
</svg>
